<?xml version="1.0" encoding="utf-8"?>
<!-- Generator: Adobe Illustrator 22.0.1, SVG Export Plug-In . SVG Version: 6.00 Build 0)  -->
<svg version="1.1" id="Layer_1" xmlns="http://www.w3.org/2000/svg" xmlns:xlink="http://www.w3.org/1999/xlink" x="0px" y="0px"
	 width="158px" height="60px" viewBox="0 0 158 60" style="enable-background:new 0 0 158 60;" xml:space="preserve">
<style type="text/css">
	.st0{fill:#404042;}
	.st1{fill:#A28A64;}
	.st2{filter:url(#Adobe_OpacityMaskFilter);}
	.st3{fill:#FFFFFF;}
	.st4{mask:url(#b_1_);fill:#404042;}
	.st5{filter:url(#Adobe_OpacityMaskFilter_1_);}
	.st6{mask:url(#b_2_);fill:#404042;}
	.st7{filter:url(#Adobe_OpacityMaskFilter_2_);}
	.st8{mask:url(#b_3_);fill:#404042;}
	.st9{filter:url(#Adobe_OpacityMaskFilter_3_);}
	.st10{mask:url(#b_4_);fill:#404042;}
	.st11{filter:url(#Adobe_OpacityMaskFilter_4_);}
	.st12{mask:url(#b_5_);fill:#404042;}
	.st13{filter:url(#Adobe_OpacityMaskFilter_5_);}
	.st14{mask:url(#b_6_);fill:#404042;}
	.st15{filter:url(#Adobe_OpacityMaskFilter_6_);}
	.st16{mask:url(#b_7_);fill:#404042;}
	.st17{filter:url(#Adobe_OpacityMaskFilter_7_);}
	.st18{mask:url(#b_8_);fill:#404042;}
	.st19{filter:url(#Adobe_OpacityMaskFilter_8_);}
	.st20{mask:url(#b_9_);fill:#404042;}
</style>
<g>
	<polygon class="st0" points="21.7,41.7 23.4,43.4 25.2,41.6 23.4,39.8 21.7,41.5 20,39.8 18.2,41.6 20,43.4 	"/>
	<polygon class="st0" points="17.4,32.6 15.6,34.4 17.4,36.2 19.1,34.5 20.8,36.2 22.6,34.4 20.8,32.6 19.1,34.3 	"/>
	<polygon class="st0" points="23.1,27.3 24.8,29 26.6,27.2 24.8,25.4 23.1,27.1 21.4,25.4 19.6,27.2 21.4,29 	"/>
	<path class="st1" d="M28.1,48.2c-0.1-0.1-0.1-0.2-0.2-0.3c0-0.1,0-0.2,0.1-0.4c0-0.1,0.1-0.2,0.1-0.3c0.1-0.1,0.2-0.3,0.2-0.4
		c0,0,0.1-0.2,0-0.1c-0.1,0.1-0.2,0.2-0.3,0.4c-0.2,0.2-0.3,0.4-0.4,0.6c-0.2,0.3-0.3,0.5-0.4,0.8c-0.1,0.2-0.1,0.4,0,0.6
		c0.1,0.2,0.3,0.4,0.4,0.6c0.1,0.1,0.1,0.2,0.2,0.2c0.1,0.2,0,0.3-0.1,0.4c-0.2,0.2-0.3,0.5-0.4,0.7c0,0-0.1,0.2-0.1,0.2
		c0,0,0.1-0.1,0.1-0.2c0,0,0,0,0-0.1c0.1-0.1,0.2-0.2,0.2-0.3c0.2-0.2,0.3-0.5,0.5-0.7c0.2-0.3,0.3-0.5,0.4-0.8
		c0.1-0.2,0.1-0.4,0-0.6C28.4,48.5,28.2,48.3,28.1,48.2z M45,32.7l1.4-2.1c-0.8-0.7-1.9-0.9-2.9-1v-8.8v-0.7h1.9v-0.5h-1.9v-1.1
		c0,0,0,0,0,0v0c0-0.6,0-1.1,0-1.5h1.9v-0.5h-1.9c0-1.2,0.1-1.4,0.1-1.4c0.4-3.3,3-5.4,3-5.4h-16l-1.4,2.1c0.1,0,0.3,0.1,0.4,0.1
		c0.4,0.1,0.7,0.3,1,0.5c0.4,0.3,0.7,0.6,1,1.1c0.5,0.8,0.4,2,0.4,2.3c0.1-0.4,0.5-1.2,1.5-2.4c0-0.2-0.1-0.9-0.3-1.6h10h1.2
		c-0.4,0.6-0.9,1.3-1.1,1.6c-0.5,1-0.8,2-1,2.8c-0.3,1.6-0.3,4.2-0.3,4.2v0v9.1h-3.6v-0.2c0-0.3,0-0.7,0-1V16.9c0-0.3,0-0.6,0-0.9
		c0-0.3,0.2-0.8,0.4-1.1c0.2-0.3,0.5-0.5,1-0.5c0.2,0,0.3,0,0.4,0.1c0.7,0.2,1,0.6,1.1,0.9c0.4,0.6,0.5,0.9,0.5,0.9
		c0.2-1.4,1-2.8,1-2.8c-0.1-0.1-0.1-0.2-0.2-0.3c-0.5-0.6-1.1-0.8-1.8-0.8c-0.6,0-1.1,0.3-1.4,0.7c-0.3,0.2-0.6,0.8-1.1,1.7
		c-0.1-0.6-0.3-1.1-0.7-1.6c-0.5-0.6-1.1-0.8-1.8-0.8c-0.6,0-1.1,0.3-1.4,0.7c-0.3,0.3-0.6,0.7-1.2,1.5c-0.2,0.4-0.8,1.1-1.1,2.1H30
		V17h2.1C32,17.4,32,17.7,32,18.2c0,0.4,0,0.8,0,1.2v0.4h-2v0.5h2v9.5H14.5v-9.5h1.9v-0.5h-1.9v-1.1l0,0v0c0-0.6,0-1.1,0-1.5h1.9
		v-0.5h-1.9c0-0.8,0.1-1.4,0.1-1.4c0.4-3.3,3-5.4,3-5.4H1.5L0,11.9c0.1,0,0.3,0.1,0.5,0.1c0.4,0.1,0.8,0.3,1.1,0.5
		c0.4,0.3,0.7,0.6,1,1.1C3,14.4,3,15.6,3,15.9c0.1-0.4,0.6-1.2,1.5-2.4c0-0.2,0-0.9-0.3-1.6h11.2c-0.4,0.6-0.9,1.3-1.1,1.6
		c-0.5,0.9-0.8,1.9-0.9,2.7C13,17.6,13,20.5,13,20.5v0v9.1H9.4c0-0.1,0-0.1,0-0.2c0-0.3,0-0.7,0-1V16.9c0-0.3,0-0.6,0-0.9
		c0-0.3,0.2-0.8,0.4-1.1c0.2-0.3,0.5-0.5,1.1-0.5c0.2,0,0.3,0,0.4,0.1c0.7,0.2,1,0.6,1.1,0.9c0.4,0.6,0.5,0.9,0.5,0.9
		c0.2-1.4,1-2.8,1-2.8c-0.1-0.1-0.1-0.2-0.2-0.3c-0.5-0.6-1.1-0.8-1.8-0.8c-0.6,0-1.1,0.3-1.4,0.7c-0.3,0.2-0.6,0.8-1.1,1.7
		c-0.1-0.6-0.3-1.1-0.7-1.6c-0.5-0.6-1.1-0.8-1.8-0.8c-0.6,0-1.1,0.3-1.4,0.7c-0.3,0.3-0.6,0.7-1.2,1.5c-0.3,0.4-0.8,1.1-1.1,2.1H1
		V17H3c-0.1,0.3-0.1,0.7-0.1,1.1h0c0,0.4,0,0.8,0,1.2v0.4H1v0.5h2v9.2c-0.6-0.2-1.1-0.5-1.5-0.8L0,30.5c0.8,0.8,1.8,1.1,2.9,1.1v8
		c0,0.9,0,1.8,0.1,2.6c0.1,0.5,0.2,1.1,0.4,1.5c0.4,0.7,1,1.4,1.6,1.9c0.5,0.4,1,0.8,1.7,1.3L8.2,45c-0.9-0.6-1.6-1.1-2.2-1.8
		c-0.3-0.3-0.6-0.6-0.8-1c-0.2-0.3-0.3-0.5-0.5-0.8c-0.2-0.5-0.3-1.1-0.3-1.7c-0.1-0.5-0.1-1.1-0.1-1.6v-1v-5.5h3.1
		C7,32.5,6,33.9,5.7,34.9c-0.1,0.2-0.1,0.4-0.2,0.6c-0.3,1.2-0.2,2.5,0.4,3.6c0.5,1.1,1.4,1.9,2.3,2.6c0.5,0.5,1.5,1.3,1.5,1.3
		c0.2-0.2,1.4-1.9,1.4-1.9s1.1-1.4,1.9-1.7v1.7c-0.2,0.2-0.4,0.4-0.6,0.6c0,0-0.5,0.5-1,1.2c-0.2,0.3-0.4,0.6-0.6,0.9
		c-0.3,0.4-0.5,0.8-0.8,1.2c-0.2,0.3-0.8,1-1.6,1.7c-0.8,0.7-2,1.2-3.8,1.2c-0.1,0-0.3,0-0.4,0c-0.7-0.1-1.5-0.2-2.2-0.5
		c-0.3-0.1-0.5-0.3-0.7-0.5L0,49.1c0.3,0.3,0.6,0.5,1,0.6c0.4,0.2,0.8,0.3,1.2,0.3c0.4,0.1,0.9,0.1,1.3,0.1c0.6,0,1.1,0,1.7-0.1v0
		c0,0,1.4-0.2,2.3-0.9c0.8-0.6,1.7-1.4,2.5-2.8c0.1-0.1,0.2-0.3,0.4-0.6c0.3-0.5,1.2-2,1.9-2.5c0.2-0.2,0.4-0.3,0.7-0.5
		c-0.1,1-0.6,2.8-1.7,4.6c0,0-1.2,1.8-1.2,1.8s0.5,0.5,1.7,0.9c0.5,0.1,1,0.1,1.5,0.1c0.4,0,0.8,0,1.2,0h5.9c0.6,0,1.1,0,1.7,0
		c0.6,0,1.3-0.1,1.9-0.2c2.9-1,4.2-4,4.3-4.2c0,0,0-0.1,0.1-0.1c-0.1,0.4-0.1,0.8,0,1.3c0.1,0.3,0.2,0.6,0.4,0.9
		c0.1,0.2,0.3,0.4,0.5,0.6c0.2,0.3,0.5,0.5,0.8,0.7c0.3,0.3,0.6,0.5,1,0.8c0.2,0.1,0.6,0.5,0.6,0.5c1.6-1.9,2.3-3.8,2.3-3.8
		c0,0,0-0.1,0-0.1c0.1-0.3,0.1-0.5,0.1-0.8c0-0.5-0.1-1-0.3-1.4c-0.3-0.5-0.6-0.9-1-1.2c-0.2-0.2-0.4-0.4-0.6-0.6
		c-0.2-0.2-0.5-0.4-0.7-0.7c-0.2-0.2-0.3-0.4-0.4-0.6c0-0.1-0.1-0.2-0.1-0.2c0,0-0.7,0.6-2.1,3.1c-0.3,0.5-0.6,1-0.9,1.5
		c0,0.1-0.1,0.1-0.1,0.2c-0.3,0.4-1.1,1.6-2.7,2.2c-1,0.4-2.6,0.5-4.4,0.5h-5.9c-1.6,0-2.8-0.6-3-0.8c0.2-0.3,0.3-0.5,0.5-0.8
		c1.5-2.4,2-3.8,2-4.3c0,0,0,0,0,0c0.2,0,0.4,0,0.6,0c0.1,0,0.3,0,0.4,0.1l1.4-2.1c-0.1,0-0.1,0-0.2,0c-0.4-0.1-1.2-0.2-2.1,0.1
		c0-0.4,0-1.2,0-1.2s0.4,0,0.7,0h4.5c0.4,0,0.8-0.1,1.2-0.2c0.8-0.3,1.3-0.8,1.7-1.3c0.6-0.7,1.2-1.7,1.2-1.8c0,0.9,0.4,1.5,0.9,2.2
		c0.3,0.3,0.6,0.6,0.9,0.9c0.3,0.3,0.6,0.6,1,0.9c0.4,0.4,1.2,1.1,1.2,1.1c2.5-3.4,2.5-5.1,2.5-5.2c0-0.4-0.1-0.8-0.2-1.2
		c-0.2-0.5-0.5-0.9-0.8-1.3c-0.3-0.3-0.6-0.6-0.9-0.9c-0.1-0.1-0.2-0.2-0.3-0.3l-1.4,2.1c0.3,0.3,0.7,0.7,1,1
		c0.1,0.1,0.1,0.1,0.2,0.2c0.1,0.1,0.3,0.3,0.4,0.5c0.4,0.6,0.7,1.4,0.6,2.1c0,0.2,0,0.4-0.1,0.6c-0.4-0.4-0.7-0.7-1.1-1
		c-0.3-0.3-0.6-0.6-0.9-0.9c-0.3-0.3-0.6-0.7-0.9-1c-0.5-0.7-0.9-1.4-0.3-2.5c0.1-0.1,0.2-0.3,0.3-0.5l-0.4-0.3
		c-0.5,0.7-0.5,0.8-0.6,1c-0.4,0.6-1.1,1.7-1.3,2c-0.4,0.6-0.8,1.2-1.5,1.5c-0.3,0.1-0.7,0.2-1,0.2h-4.8c-0.7,0-1.2,0.1-1.6,0.3
		v-5.6H32v4.5c0,0-0.7,0.6-2.8,4c-0.2,0.3-0.9,1.3-1.2,1.6c-0.6,0.6-1.3,1.3-2.3,1.8c-0.9,0.4-1.9,0.6-3.2,0.7c-0.2,0-0.4,0-0.6,0
		h-2.2c-0.3,0-0.7,0-1,0c-0.4,0-0.9-0.1-1.3-0.2c-0.5-0.1-0.9-0.3-1.3-0.7c0,0-0.1-0.1-0.1-0.1l-1.4,2.1c0.3,0.3,0.8,0.6,1.2,0.7
		c0.4,0.1,0.9,0.2,1.3,0.3c0.4,0,0.7,0.1,1.1,0.1h2.2c0.5,0,1,0,1.5,0c1.1,0,2.2-0.2,3.1-0.7c0.1-0.1,0.2-0.1,0.3-0.2
		c0.1,0,0.1-0.1,0.2-0.1c0.1,0,0.1-0.1,0.2-0.1c0.7-0.5,2-1.7,3.6-4.2c0.2-0.3,1.1-1.7,1.4-2.2c0.4-0.6,0.8-1.1,1.2-1.3V38v0.4
		c0,1.3,0.1,1.7,0.2,2c0.1,0.3,0.2,0.6,0.4,0.9c0.1,0.3,0.3,0.5,0.5,0.7c0.2,0.2,0.4,0.4,0.6,0.5c0.6,0.5,1.2,1,1.8,1.5
		c0.3,0.3,0.6,0.5,0.9,0.8c-0.2,0.2-0.3,0.5-0.5,0.7c-0.5,0.8-1.1,1.5-1.6,2.3c-0.3,0.4-1.6,2.2-1.6,2.2h6.2c0.9-1.2,1.4-2,2.3-3.5
		c0.5-0.8-0.2-1.4-0.3-1.5c-0.2-0.2-0.5-0.4-0.7-0.6c-0.6-0.5-1.2-0.9-1.8-1.4c0.3-0.3,0.5-0.7,0.8-1c0.3-0.3,0.5-0.6,0.7-0.9
		c0.3-0.5,0.6-0.9,0.6-1.4c0-0.2-0.2-0.3-0.3-0.5c-0.2-0.2-0.3-0.3-0.5-0.5c-0.2-0.2-0.5-0.4-0.7-0.5c-0.8-0.6-1.7-1.3-2.3-2.2
		c-0.1-0.2-0.3-0.4-0.4-0.6c0,0,0-0.1,0-0.1l-1.4,2.1c0,0.1,0,0.1,0.1,0.2c0.1,0.2,0.2,0.5,0.4,0.7c0.6,0.9,1.5,1.5,2.3,2.2
		c0.3,0.2,0.6,0.5,0.9,0.7c0.2,0.2,0.4,0.5,0.1,0.8c-0.1,0.1-0.2,0.2-0.2,0.3c-0.1,0.2-0.3,0.3-0.4,0.5c-0.6-0.4-1.1-0.9-1.7-1.3
		c-0.6-0.5-1.1-0.9-1.6-1.4c-0.9-0.8-1.1-1.7-1.1-1.7c-0.1-0.3-0.1-0.8-0.2-1.4c0.2,0,0.3,0.1,0.4,0.1l1.4-2.1
		C35.2,35,35,35,34.9,35c-0.4-0.1-0.7,0-1.1,0.1c-0.1,0-0.4,0.1-0.4,0.1v-3.5H37c0,0.4,0,0.9,0.1,1.3c0.1,0.6,0.1,1.1,0.3,1.7
		c0.1,0.3,0.3,0.5,0.4,0.8c0.2,0.3,0.4,0.6,0.7,0.9c0.5,0.5,1.1,1,1.8,1.4l1.4-2.1c-0.6-0.4-1.2-0.9-1.7-1.4
		c-0.3-0.3-0.5-0.6-0.7-0.9c-0.2-0.2-0.3-0.5-0.4-0.8c-0.1-0.3-0.2-0.6-0.2-0.9H40c0.7,0,1.4,0,2.1,0.1v13.1c0,0.4,0,0.7,0,1.1
		c0,0.4,0.1,0.9,0.2,1.3c0.2,0.7,0.6,1.3,1.1,1.8c0.5,0.5,1.1,0.9,1.6,1.1l1.5-2.2c-0.9-0.4-1.3-0.7-1.6-0.9
		c-0.3-0.2-0.5-0.5-0.7-0.9c-0.3-0.5-0.5-1.2-0.6-1.8c0-0.3-0.1-0.5-0.1-0.8V32.1C44,32.2,44.6,32.4,45,32.7z M29.7,43.8
		c0-0.2,0-0.4,0.1-0.5c0,0.1,0.1,0.1,0.1,0.2c0.2,0.2,0.4,0.5,0.6,0.7c0.2,0.2,0.4,0.4,0.7,0.6c0.4,0.4,0.8,0.8,1.1,1.2
		c0.3,0.4,0.4,0.9,0.5,1.4c0,0.2,0,0.4,0,0.6c-0.4-0.3-0.8-0.6-1.1-0.9c-0.3-0.2-0.6-0.5-0.9-0.8c-0.2-0.2-0.3-0.4-0.5-0.6
		c-0.2-0.2-0.3-0.5-0.4-0.8C29.7,44.6,29.7,44.2,29.7,43.8z M6.5,29.6c-0.7,0-1.4,0-2.1,0V16.9c0-1.1,0.2-1.7,0.4-2
		c0.2-0.3,0.5-0.5,1-0.5c0.2,0,0.3,0,0.4,0.1c0.7,0.2,1,0.6,1.1,0.9C7.9,16,8,17,8,17.8v11.8H6.5z M13,38.2c-1.1,0.9-2,2.4-2.2,2.6
		c-0.6-0.5-1.5-1.2-2.5-2.2c-0.4-0.4-0.8-0.9-1-1.5c-0.3-0.6-0.5-1.2-0.5-1.8c-0.1-0.6,0-1.8,1.1-3.6H8c0,0.4,0,0.9,0.1,1.3
		c0.1,0.6,0.1,1.1,0.3,1.7c0.1,0.3,0.2,0.5,0.4,0.8C9,35.8,9.2,36,9.5,36.3c0.5,0.5,1.1,1,1.7,1.4l1.4-2.1c-0.6-0.4-1.2-0.8-1.7-1.4
		c-0.3-0.3-0.5-0.6-0.7-0.9c-0.2-0.2-0.3-0.5-0.4-0.8c-0.1-0.3-0.2-0.6-0.2-0.9H13V38.2z M37.6,45.8c0.5,0.4,1,0.8,1.5,1.2
		c0.1,0.1,0.2,0.2,0.3,0.3c0.1,0.1,0.1,0.1,0.2,0.2c0.2,0.3,0.1,0.7,0.1,0.7h-5c0,0,0.3-0.5,0.5-0.7c0.1-0.2,0.2-0.3,0.3-0.5
		c0,0,0,0,0,0c0.1-0.1,0.1-0.2,0.2-0.3c0.3-0.5,0.7-1,1-1.4C37.1,45.4,37.4,45.6,37.6,45.8z M37,29.6h-3.6V16.9c0-1.1,0.2-1.7,0.4-2
		c0.2-0.3,0.5-0.5,1-0.5c0.2,0,0.3,0,0.4,0.1c0.7,0.2,1,0.6,1.1,0.9C36.9,16,37,17,37,17.8V29.6z"/>
	<path class="st0" d="M84.3,17.6c0-0.5,0-1,0-1.4c0-0.4,0-0.8,0-1.2H86c0,0.3,0,0.6,0,0.9c0,0.3,0,0.6,0,0.9h0
		c0.1-0.3,0.3-0.5,0.5-0.8c0.2-0.2,0.5-0.5,0.8-0.7c0.3-0.2,0.7-0.4,1.1-0.5c0.4-0.1,0.8-0.2,1.3-0.2c0.6,0,1.1,0.1,1.5,0.2
		c0.4,0.1,0.8,0.3,1,0.5c0.3,0.2,0.5,0.4,0.6,0.7c0.2,0.2,0.3,0.4,0.4,0.6c0.4-0.7,0.9-1.2,1.4-1.5c0.5-0.4,1.3-0.6,2.1-0.6
		c0.8,0,1.5,0.1,2,0.3c0.5,0.2,1,0.5,1.3,0.9c0.3,0.4,0.6,0.9,0.7,1.5c0.1,0.6,0.2,1.2,0.2,1.9V26h-1.9v-6.6c0-0.4,0-0.7-0.1-1.1
		c-0.1-0.4-0.2-0.7-0.4-1c-0.2-0.3-0.5-0.5-0.8-0.7c-0.4-0.2-0.8-0.3-1.4-0.3c-0.4,0-0.8,0.1-1.1,0.2c-0.4,0.2-0.7,0.4-0.9,0.7
		c-0.3,0.3-0.5,0.6-0.6,1c-0.1,0.4-0.2,0.8-0.2,1.3V26h-1.9v-6.2c0-1.2-0.2-2.1-0.5-2.6c-0.3-0.5-0.9-0.8-1.7-0.8
		c-0.6,0-1.1,0.1-1.6,0.3c-0.4,0.2-0.8,0.5-1.1,0.9c-0.3,0.4-0.5,0.8-0.6,1.3c-0.1,0.5-0.2,1.1-0.2,1.7V26h-1.9V17.6z"/>
	<defs>
		<filter id="Adobe_OpacityMaskFilter" filterUnits="userSpaceOnUse" x="104.4" y="15" width="1.9" height="11">
			<feColorMatrix  type="matrix" values="1 0 0 0 0  0 1 0 0 0  0 0 1 0 0  0 0 0 1 0"/>
		</filter>
	</defs>
	<mask maskUnits="userSpaceOnUse" x="104.4" y="15" width="1.9" height="11" id="b_1_">
		<g class="st2">
			<polygon id="a_1_" class="st3" points="0,60 157.6,60 157.6,0 0,0 			"/>
		</g>
	</mask>
	<polygon class="st4" points="104.4,26 106.3,26 106.3,15 104.4,15 	"/>
	<defs>
		<filter id="Adobe_OpacityMaskFilter_1_" filterUnits="userSpaceOnUse" x="109.3" y="11.6" width="48.3" height="14.4">
			<feColorMatrix  type="matrix" values="1 0 0 0 0  0 1 0 0 0  0 0 1 0 0  0 0 0 1 0"/>
		</filter>
	</defs>
	<mask maskUnits="userSpaceOnUse" x="109.3" y="11.6" width="48.3" height="14.4" id="b_2_">
		<g class="st5">
			<polygon id="a_2_" class="st3" points="0,60 157.6,60 157.6,0 0,0 			"/>
		</g>
	</mask>
	<path class="st6" d="M109.4,17.6c0-0.5,0-1-0.1-1.4c0-0.4,0-0.8,0-1.2h1.8c0,0.3,0,0.6,0,0.9c0,0.3,0,0.6,0,0.9h0
		c0.1-0.3,0.3-0.5,0.5-0.8c0.2-0.2,0.5-0.5,0.8-0.7c0.3-0.2,0.7-0.4,1.1-0.5c0.4-0.1,0.8-0.2,1.3-0.2c0.1,0,0.3,0,0.4,0
		c0.1,0,0.3,0,0.4,0.1l-0.1,1.9c-0.3-0.1-0.7-0.1-1-0.1c-1.2,0-2,0.4-2.5,1.1c-0.5,0.7-0.8,1.7-0.8,3V26h-1.9V17.6z M117.2,16.1
		c0.6-0.6,1.3-1,2-1.3c0.8-0.3,1.6-0.4,2.4-0.4c1.7,0,2.9,0.4,3.6,1.2c0.7,0.8,1.1,1.9,1.1,3.5v4.7c0,0.3,0,0.6,0.1,1
		c0,0.3,0.1,0.6,0.1,0.9h-1.8c-0.1-0.3-0.1-0.5-0.1-0.8v-0.8h-0.1c-0.4,0.6-0.9,1-1.5,1.4c-0.6,0.4-1.4,0.5-2.2,0.5
		c-0.6,0-1.1-0.1-1.6-0.2c-0.5-0.1-0.9-0.3-1.3-0.6c-0.4-0.3-0.7-0.6-0.9-1c-0.2-0.4-0.3-0.9-0.3-1.4c0-0.9,0.2-1.6,0.7-2.1
		c0.5-0.5,1.1-0.9,1.8-1.2c0.7-0.3,1.5-0.4,2.3-0.5c0.8-0.1,1.6-0.1,2.3-0.1h0.7v-0.3c0-0.8-0.3-1.4-0.7-1.8c-0.5-0.4-1.2-0.6-2-0.6
		c-0.6,0-1.2,0.1-1.8,0.3c-0.6,0.2-1.1,0.5-1.5,0.9L117.2,16.1z M122.6,20.4c-1.2,0-2.2,0.2-2.9,0.5c-0.7,0.3-1.1,0.9-1.1,1.6
		c0,0.7,0.2,1.2,0.7,1.5c0.5,0.3,1.1,0.4,1.8,0.4c0.5,0,1-0.1,1.4-0.3c0.4-0.2,0.8-0.4,1-0.7c0.3-0.3,0.5-0.6,0.6-1
		c0.1-0.4,0.2-0.8,0.2-1.3v-0.7H122.6z M147.2,23.7c-0.7,0.8-1.4,1.4-2.2,1.8c-0.8,0.3-1.7,0.5-2.8,0.5c-0.9,0-1.7-0.1-2.4-0.4
		c-0.7-0.3-1.3-0.7-1.8-1.2c-0.5-0.5-0.9-1.1-1.1-1.8c-0.3-0.7-0.4-1.5-0.4-2.3c0-0.8,0.1-1.6,0.4-2.3c0.3-0.7,0.7-1.3,1.2-1.8
		c0.5-0.5,1.1-0.9,1.8-1.2c0.7-0.3,1.5-0.4,2.3-0.4c0.8,0,1.5,0.1,2.2,0.4c0.7,0.3,1.2,0.6,1.7,1.1c0.5,0.5,0.9,1.1,1.1,1.8
		c0.3,0.7,0.4,1.5,0.4,2.4v0.6h-9.1c0,0.5,0.1,0.9,0.3,1.4c0.2,0.4,0.5,0.8,0.8,1.1c0.3,0.3,0.7,0.6,1.1,0.8
		c0.4,0.2,0.9,0.3,1.4,0.3c0.8,0,1.5-0.1,2.1-0.4c0.6-0.3,1.1-0.7,1.5-1.2L147.2,23.7z M145.6,19.2c0-0.9-0.3-1.7-0.9-2.3
		c-0.6-0.6-1.4-0.8-2.5-0.8c-1,0-1.9,0.3-2.5,0.8c-0.6,0.6-1,1.3-1.2,2.3H145.6z M150.2,22.8c0.4,0.5,0.8,0.8,1.2,1.1
		c0.5,0.3,1,0.4,1.7,0.4c0.3,0,0.6,0,0.9-0.1c0.3-0.1,0.6-0.2,0.8-0.3c0.2-0.1,0.4-0.3,0.6-0.5c0.1-0.2,0.2-0.5,0.2-0.8
		c0-0.3-0.1-0.5-0.2-0.7c-0.1-0.2-0.3-0.3-0.5-0.5c-0.2-0.1-0.5-0.3-0.8-0.3c-0.3-0.1-0.6-0.1-0.9-0.2c-0.5-0.1-1-0.2-1.5-0.4
		c-0.5-0.1-0.9-0.3-1.3-0.5c-0.4-0.2-0.6-0.5-0.9-0.9c-0.2-0.4-0.3-0.8-0.3-1.4c0-0.5,0.1-1,0.4-1.4c0.2-0.4,0.6-0.7,1-1
		c0.4-0.3,0.9-0.5,1.4-0.6c0.5-0.1,1-0.2,1.5-0.2c0.8,0,1.5,0.2,2.2,0.5c0.7,0.3,1.2,0.8,1.6,1.5l-1.6,1c-0.2-0.4-0.6-0.7-1-0.9
		c-0.4-0.3-0.9-0.4-1.4-0.4c-0.3,0-0.5,0-0.8,0.1c-0.3,0.1-0.5,0.2-0.7,0.3c-0.2,0.1-0.4,0.3-0.5,0.5c-0.1,0.2-0.2,0.4-0.2,0.7
		c0,0.2,0.1,0.4,0.2,0.6c0.2,0.2,0.4,0.3,0.6,0.4c0.3,0.1,0.6,0.2,0.9,0.3c0.4,0.1,0.7,0.2,1.1,0.2c0.5,0.1,1,0.2,1.4,0.4
		c0.5,0.1,0.8,0.3,1.2,0.6c0.3,0.2,0.6,0.6,0.8,0.9c0.2,0.4,0.3,0.8,0.3,1.4c0,0.6-0.1,1.2-0.4,1.6c-0.3,0.4-0.6,0.8-1,1.1
		c-0.4,0.3-0.9,0.5-1.4,0.6c-0.5,0.1-1.1,0.2-1.6,0.2c-1,0-1.8-0.1-2.5-0.4c-0.7-0.3-1.3-0.8-1.9-1.6L150.2,22.8z M135.4,23.9
		c-0.3,0.1-0.5,0.2-0.8,0.3c-0.3,0.1-0.6,0.1-0.8,0.1c-0.4,0-0.7-0.1-1-0.2c-0.2-0.1-0.4-0.3-0.5-0.5c-0.1-0.2-0.2-0.5-0.2-0.8
		c0-0.3,0-0.6,0-1v-5.5h3.3v-1.6h-3.3v-3.1l-1.9,1.9v1.2h-2.5v1.6h2.5v6.1c0,0.6,0,1.1,0.1,1.6c0.1,0.5,0.2,0.8,0.5,1.2
		c0.2,0.3,0.5,0.6,0.9,0.7c0.4,0.2,0.9,0.3,1.6,0.3c0.4,0,0.7,0,1.1-0.1c0.4-0.1,0.8-0.2,1.1-0.3L135.4,23.9z"/>
	<defs>
		<filter id="Adobe_OpacityMaskFilter_2_" filterUnits="userSpaceOnUse" x="103.5" y="8.7" width="3.7" height="3.6">
			<feColorMatrix  type="matrix" values="1 0 0 0 0  0 1 0 0 0  0 0 1 0 0  0 0 0 1 0"/>
		</filter>
	</defs>
	<mask maskUnits="userSpaceOnUse" x="103.5" y="8.7" width="3.7" height="3.6" id="b_3_">
		<g class="st7">
			<polygon id="a_3_" class="st3" points="0,60 157.6,60 157.6,0 0,0 			"/>
		</g>
	</mask>
	<polygon class="st8" points="107.2,10.4 105.3,8.7 103.5,10.5 105.3,12.3 	"/>
	<defs>
		<filter id="Adobe_OpacityMaskFilter_3_" filterUnits="userSpaceOnUse" x="85.6" y="34" width="11.2" height="17.3">
			<feColorMatrix  type="matrix" values="1 0 0 0 0  0 1 0 0 0  0 0 1 0 0  0 0 0 1 0"/>
		</filter>
	</defs>
	<mask maskUnits="userSpaceOnUse" x="85.6" y="34" width="11.2" height="17.3" id="b_4_">
		<g class="st9">
			<polygon id="a_4_" class="st3" points="0,60 157.6,60 157.6,0 0,0 			"/>
		</g>
	</mask>
	<polygon class="st10" points="87.7,49.4 87.7,43.3 95.9,43.3 95.9,41.4 87.7,41.4 87.7,36 96.5,36 96.5,34 85.6,34 85.6,51.3 
		96.8,51.3 96.8,49.4 	"/>
	<defs>
		<filter id="Adobe_OpacityMaskFilter_4_" filterUnits="userSpaceOnUse" x="101.1" y="34" width="2.1" height="17.3">
			<feColorMatrix  type="matrix" values="1 0 0 0 0  0 1 0 0 0  0 0 1 0 0  0 0 0 1 0"/>
		</filter>
	</defs>
	<mask maskUnits="userSpaceOnUse" x="101.1" y="34" width="2.1" height="17.3" id="b_5_">
		<g class="st11">
			<polygon id="a_5_" class="st3" points="0,60 157.6,60 157.6,0 0,0 			"/>
		</g>
	</mask>
	<polygon class="st12" points="101.1,51.3 103.2,51.3 103.2,34 101.1,34 	"/>
	<defs>
		<filter id="Adobe_OpacityMaskFilter_5_" filterUnits="userSpaceOnUse" x="106.3" y="34" width="13.4" height="17.3">
			<feColorMatrix  type="matrix" values="1 0 0 0 0  0 1 0 0 0  0 0 1 0 0  0 0 0 1 0"/>
		</filter>
	</defs>
	<mask maskUnits="userSpaceOnUse" x="106.3" y="34" width="13.4" height="17.3" id="b_6_">
		<g class="st13">
			<polygon id="a_6_" class="st3" points="0,60 157.6,60 157.6,0 0,0 			"/>
		</g>
	</mask>
	<polygon class="st14" points="106.3,34 106.3,36 112,36 112,51.3 114.1,51.3 114.1,36 119.7,36 119.7,34 	"/>
	<defs>
		<filter id="Adobe_OpacityMaskFilter_6_" filterUnits="userSpaceOnUse" x="70.9" y="34" width="11.9" height="17.3">
			<feColorMatrix  type="matrix" values="1 0 0 0 0  0 1 0 0 0  0 0 1 0 0  0 0 0 1 0"/>
		</filter>
	</defs>
	<mask maskUnits="userSpaceOnUse" x="70.9" y="34" width="11.9" height="17.3" id="b_7_">
		<g class="st15">
			<polygon id="a_7_" class="st3" points="0,60 157.6,60 157.6,0 0,0 			"/>
		</g>
	</mask>
	<path class="st16" d="M77.9,43.2c0.5-0.1,1-0.2,1.5-0.4c0.5-0.2,1-0.5,1.4-0.9c0.4-0.4,0.7-0.9,0.9-1.4c0.2-0.5,0.4-1.1,0.4-1.8
		c0-0.9-0.2-1.6-0.5-2.2c-0.3-0.6-0.7-1.1-1.3-1.5c-0.5-0.4-1.2-0.6-1.9-0.8c-0.7-0.2-1.5-0.2-2.3-0.2h-5.2v17.3H73V35.9h2.9
		c0.6,0,1.2,0.1,1.7,0.2c0.5,0.1,0.9,0.3,1.3,0.5c0.3,0.2,0.6,0.5,0.8,0.9c0.2,0.4,0.3,0.8,0.3,1.3c0,0.9-0.3,1.6-1,2.1
		c-0.7,0.5-1.8,0.7-3.1,0.7h-1.3l2.3,3.9l3.5,5.9h2.6L77.9,43.2z"/>
	<defs>
		<filter id="Adobe_OpacityMaskFilter_7_" filterUnits="userSpaceOnUse" x="70.9" y="8.7" width="11.2" height="17.3">
			<feColorMatrix  type="matrix" values="1 0 0 0 0  0 1 0 0 0  0 0 1 0 0  0 0 0 1 0"/>
		</filter>
	</defs>
	<mask maskUnits="userSpaceOnUse" x="70.9" y="8.7" width="11.2" height="17.3" id="b_8_">
		<g class="st17">
			<polygon id="a_8_" class="st3" points="0,60 157.6,60 157.6,0 0,0 			"/>
		</g>
	</mask>
	<polygon class="st18" points="73,24.1 73,17.9 81.2,17.9 81.2,16 73,16 73,10.6 81.8,10.6 81.8,8.7 70.9,8.7 70.9,26 82.1,26 
		82.1,24.1 	"/>
	<defs>
		<filter id="Adobe_OpacityMaskFilter_8_" filterUnits="userSpaceOnUse" x="58.3" y="0" width="1" height="60">
			<feColorMatrix  type="matrix" values="1 0 0 0 0  0 1 0 0 0  0 0 1 0 0  0 0 0 1 0"/>
		</filter>
	</defs>
	<mask maskUnits="userSpaceOnUse" x="58.3" y="0" width="1" height="60" id="b_9_">
		<g class="st19">
			<polygon id="a_9_" class="st3" points="0,60 157.6,60 157.6,0 0,0 			"/>
		</g>
	</mask>
	<polygon class="st20" points="58.3,60 59.3,60 59.3,0 58.3,0 	"/>
</g>
</svg>
